<svg xmlns="http://www.w3.org/2000/svg" viewBox="0 0 533.5 544.3">
  <path fill="#4285f4" d="M533.5 278.4c0-17.4-1.4-34.1-4.1-50.4H272v95.3h146.9c-6.3 34.1-25 63-53.3 82.3v68h86.2c50.5-46.5 81.7-115 81.7-195.2z"/>
  <path fill="#34a853" d="M272 544.3c72.6 0 133.6-24 178.1-65.1l-86.2-68c-24 16.2-54.8 25.8-91.9 25.8-70.7 0-130.6-47.7-152-111.7h-89.8v70.2C74.4 475.1 166.7 544.3 272 544.3z"/>
  <path fill="#fbbc04" d="M120 325.3c-10.3-30.6-10.3-63.9 0-94.5v-70.2h-89.8c-38.8 77.3-38.8 168.1 0 245.4l89.8-70.2z"/>
  <path fill="#ea4335" d="M272 107.7c39.5-.6 77.3 14.5 106.3 42.6l79.1-79.1C413.4 24.6 344.6-1.2 272 0 166.7 0 74.4 69.2 30.2 160.6l89.8 70.2C141.4 155.4 201.3 107.7 272 107.7z"/>
</svg>
